<svg xmlns="http://www.w3.org/2000/svg" width="40" height="43" viewBox="0 0 40 43">
    <g fill="none" fill-rule="evenodd">
        <path d="M-5-3h50v50H-5z"/>
        <path fill="#FFF" fill-rule="nonzero" d="M19.682 0l-3.935 3.934-1.967-1.967-8.14 8.14H2.03l4.196-5.245h1.652L9.19 3.55H5.596L.204 10.29a.726.726 0 0 0-.11.138l-.084.105v.12a.593.593 0 0 0 0 .213v32.028h39.344v-32.02a.593.593 0 0 0 0-.213v-.128l-.082-.105a.884.884 0 0 0-.115-.144l-5.39-6.734h-3.593l1.311 1.312h1.652l4.196 5.246h-2.298l-8.14-8.14-2.623 2.622L19.682 0zm0 1.855l4.59 4.59.04-.044a.656.656 0 1 0 .844-.843l1.739-1.736 6.286 6.286h-3.663a.657.657 0 0 0-.656-.656.657.657 0 0 0-.656.656H21.65a.657.657 0 0 0-.656-.656.657.657 0 0 0-.656.656H7.494l6.286-6.286 1.967 1.967 3.935-3.934zm-2.623 3.662a.657.657 0 0 0-.656.656.657.657 0 0 0 1.311 0 .657.657 0 0 0-.655-.656zM18.37 6.83a.657.657 0 0 0-.655.656c0 .36.294.655.655.655a.657.657 0 0 0 .656-.655.657.657 0 0 0-.656-.656zm7.87 0a.657.657 0 0 0-.657.656.657.657 0 0 0 1.311 0 .657.657 0 0 0-.655-.656zM19.681 8.14a.657.657 0 0 0-.656.656.657.657 0 0 0 1.311 0 .657.657 0 0 0-.655-.656zm7.869 0a.657.657 0 0 0-.656.656.657.657 0 0 0 1.311 0 .657.657 0 0 0-.655-.656zM1.32 11.42h36.721v30.163H1.322V11.419zm3.935 26.884a.657.657 0 0 0-.656.656.657.657 0 0 0 1.311 0 .657.657 0 0 0-.655-.656zm2.622 0a.657.657 0 0 0-.655.656c0 .361.294.656.655.656a.657.657 0 0 0 .656-.656.657.657 0 0 0-.656-.656zm2.623 0a.657.657 0 0 0-.655.656c0 .361.294.656.655.656a.657.657 0 0 0 .656-.656.657.657 0 0 0-.656-.656zm2.623 0a.657.657 0 0 0-.655.656c0 .361.294.656.655.656a.657.657 0 0 0 .656-.656.657.657 0 0 0-.656-.656zm2.623 0a.657.657 0 0 0-.655.656c0 .361.294.656.655.656a.657.657 0 0 0 .656-.656.657.657 0 0 0-.656-.656zm2.623 0a.657.657 0 0 0-.655.656c0 .361.294.656.655.656a.657.657 0 0 0 .656-.656.657.657 0 0 0-.656-.656zm2.623 0a.657.657 0 0 0-.656.656.657.657 0 0 0 1.311 0 .657.657 0 0 0-.655-.656zm2.623 0a.657.657 0 0 0-.656.656.657.657 0 0 0 1.311 0 .657.657 0 0 0-.655-.656zm2.623 0a.657.657 0 0 0-.656.656.657.657 0 0 0 1.311 0 .657.657 0 0 0-.655-.656zm2.623 0a.657.657 0 0 0-.656.656.657.657 0 0 0 1.311 0 .657.657 0 0 0-.655-.656zm2.623 0a.657.657 0 0 0-.656.656.657.657 0 0 0 1.311 0 .657.657 0 0 0-.655-.656zm2.623 0a.657.657 0 0 0-.656.656.657.657 0 0 0 1.311 0 .657.657 0 0 0-.655-.656z"/>
    </g>
</svg>
