<svg xmlns="http://www.w3.org/2000/svg" width="40" height="43" viewBox="0 0 40 43">
    <g fill="#FFF" fill-rule="evenodd">
        <path fill-rule="nonzero" d="M19.682 0l-3.935 3.934-1.967-1.967-8.14 8.14H2.03l4.196-5.245h1.652L9.19 3.55H5.596L.204 10.29a.726.726 0 0 0-.11.138l-.084.105v.12a.593.593 0 0 0 0 .213v32.028h39.344v-32.02a.593.593 0 0 0 0-.213v-.128l-.082-.105a.884.884 0 0 0-.115-.144l-5.39-6.734h-3.593l1.311 1.312h1.652l4.196 5.246h-2.298l-8.14-8.14-2.623 2.622L19.682 0zm0 1.855l4.59 4.59.04-.044a.656.656 0 1 0 .844-.843l1.739-1.736 6.286 6.286h-3.663a.657.657 0 0 0-.656-.656.657.657 0 0 0-.656.656H21.65a.657.657 0 0 0-.656-.656.657.657 0 0 0-.656.656H7.494l6.286-6.286 1.967 1.967 3.935-3.934zm-2.623 3.662a.657.657 0 0 0-.656.656.657.657 0 0 0 1.311 0 .657.657 0 0 0-.655-.656zM18.37 6.83a.657.657 0 0 0-.655.656c0 .36.294.655.655.655a.657.657 0 0 0 .656-.655.657.657 0 0 0-.656-.656zm7.87 0a.657.657 0 0 0-.657.656.657.657 0 0 0 1.311 0 .657.657 0 0 0-.655-.656zM19.681 8.14a.657.657 0 0 0-.656.656.657.657 0 0 0 1.311 0 .657.657 0 0 0-.655-.656zm7.869 0a.657.657 0 0 0-.656.656.657.657 0 0 0 1.311 0 .657.657 0 0 0-.655-.656zM1.32 11.42h36.721v30.163H1.322V11.419zm3.935 26.884a.657.657 0 0 0-.656.656.657.657 0 0 0 1.311 0 .657.657 0 0 0-.655-.656zm2.622 0a.657.657 0 0 0-.655.656c0 .361.294.656.655.656a.657.657 0 0 0 .656-.656.657.657 0 0 0-.656-.656zm2.623 0a.657.657 0 0 0-.655.656c0 .361.294.656.655.656a.657.657 0 0 0 .656-.656.657.657 0 0 0-.656-.656zm2.623 0a.657.657 0 0 0-.655.656c0 .361.294.656.655.656a.657.657 0 0 0 .656-.656.657.657 0 0 0-.656-.656zm2.623 0a.657.657 0 0 0-.655.656c0 .361.294.656.655.656a.657.657 0 0 0 .656-.656.657.657 0 0 0-.656-.656zm2.623 0a.657.657 0 0 0-.655.656c0 .361.294.656.655.656a.657.657 0 0 0 .656-.656.657.657 0 0 0-.656-.656zm2.623 0a.657.657 0 0 0-.656.656.657.657 0 0 0 1.311 0 .657.657 0 0 0-.655-.656zm2.623 0a.657.657 0 0 0-.656.656.657.657 0 0 0 1.311 0 .657.657 0 0 0-.655-.656zm2.623 0a.657.657 0 0 0-.656.656.657.657 0 0 0 1.311 0 .657.657 0 0 0-.655-.656zm2.623 0a.657.657 0 0 0-.656.656.657.657 0 0 0 1.311 0 .657.657 0 0 0-.655-.656zm2.623 0a.657.657 0 0 0-.656.656.657.657 0 0 0 1.311 0 .657.657 0 0 0-.655-.656zm2.623 0a.657.657 0 0 0-.656.656.657.657 0 0 0 1.311 0 .657.657 0 0 0-.655-.656z"/>
        <path stroke="#FFF" stroke-width=".5" d="M19.838 16.393l-7.29 4.216-.089.053v8.524l7.38 4.257 7.289-4.207.09-.055v-8.519l-7.38-4.269zm.184 4.316v-3.784l6.649 3.842-4.963 2.872-1.686-2.93zm-7.02.047l6.657-3.83v3.783l-1.691 2.924-4.966-2.877zm10.573 6.12l-1.687-2.93 4.967-2.878v7.692l-3.28-1.883zm-10.75-5.808l4.967 2.877-1.682 2.917-3.284 1.895v-7.689zm5.473 2.744l1.367-2.37v3.162l-1.367-.792zm1.728-2.366l1.366 2.37-1.366.788v-3.158zm-1.91 2.682l1.366.792-2.737 1.578 1.371-2.37zm2.085.792l1.363-.787 1.37 2.37-2.733-1.583zm-.175.317l3.053 1.761-3.053 1.762v-3.523zm-3.413 1.761l3.052-1.761v3.523l-3.052-1.762zm-3.607 2.079l3.236-1.866 3.417 1.975v3.732l-6.653-3.841zm7.02.115l3.416-1.974 3.236 1.866-6.656 3.834.004-3.726z"/>
    </g>
</svg>
