<svg xmlns="http://www.w3.org/2000/svg" width="42" height="42" viewBox="0 0 42 42">
    <g fill="none" fill-rule="nonzero" transform="translate(1 1)">
        <circle cx="20" cy="20" r="20" stroke="#676767"/>
        <path fill="#676767" d="M24.86 31.474c-.41-.177-.533-.497-.533-.93.002-1.489-.001-2.978-.044-4.466a2.88 2.88 0 0 0-.696-1.798c-.064-.076-.131-.15-.214-.243.075-.013.11-.02.147-.025 1.035-.14 2.057-.324 3.01-.783 1.039-.5 1.936-1.155 2.508-2.186.549-.987.81-2.054.917-3.17.17-1.776-.111-3.42-1.333-4.81-.055-.062-.088-.194-.062-.268.362-1.035.312-2.066.008-3.102-.206-.7-.323-.777-1.036-.632-.019.004-.037.01-.055.015-1.03.265-1.964.74-2.85 1.315a.667.667 0 0 1-.581.1 13.44 13.44 0 0 0-6.668-.004c-.22.056-.385.022-.584-.085a38.93 38.93 0 0 0-2.126-1.074c-.446-.206-.924-.35-1.43-.286-.084.01-.206.076-.232.146-.431 1.146-.589 2.312-.177 3.5.065.186.037.305-.09.45a5.253 5.253 0 0 0-1.165 2.28c-.221.928-.189 1.865-.08 2.799.13 1.123.442 2.196 1.079 3.142.893 1.327 2.229 1.988 3.726 2.368.555.14 1.126.217 1.726.329-.517.51-.77 1.13-.888 1.816-.01.054-.06.125-.11.145-.836.339-1.698.498-2.574.197-.674-.232-1.143-.73-1.497-1.337a3.347 3.347 0 0 0-1.425-1.347c-.406-.202-.832-.326-1.29-.21-.259.066-.31.176-.15.378.144.183.333.33.506.49.263.24.584.441.783.727.316.455.591.95.812 1.458.384.883 1.047 1.407 1.956 1.618.799.185 1.615.22 2.432.113.156-.02.311-.048.523-.08 0 .858-.011 1.681.005 2.504.008.444-.13.773-.557.946 2.652.914 5.431.842 8.31 0"/>
    </g>
</svg>
